# xmcd
#
# Track frame offsets:
#	150
#	15575
#	34790
#	54771
#	72128
#	88851
#	107328
#	122661
#	139259
#	160470
#	178025
#	194281
#	218289
#	235790
#
# Disc length: 3417 seconds
#
# Revision: 1
# Processed by: cddbd v1.5.2PL0 Copyright (c) Steve Scherf et al.
# Submitted via: audiograbber 1.83.01
#
DISCID=b10d570e
DTITLE=Various Artist - Reminisce - Hip Hop Classics
DYEAR=2003
DGENRE=Hip Hop
TTITLE0=Time 4 Sum Aksion - Redman
TTITLE1=Brooklyn's Finest - Jay-Z ft Notorious B.I.G.
TTITLE2=Quiet Storm - Mobb Deep
TTITLE3=I Shot Ya - LL Cool J
TTITLE4=Danger - Blahzay Blahzay
TTITLE5=Best Kept Secret - Diamond And The PsycoticNeurotics
TTITLE6=I Got To Have It - Ed OG and Da Bulldogs
TTITLE7=I'm Not a Player - Big Punisher
TTITLE8=Deja Vu (Uptown Baby) - Lord Tariq and Peter Gunz
TTITLE9=Paperazzi - Xzibit
TTITLE10=Cheapskate - Sporty Thievz
TTITLE11=Nappy Heads  - Fugees (Tranzlator Crew)
TTITLE12=Ghetto Red Hot (Hip Hop Mix) - Super Cat
TTITLE13=Dettwork Southeast - Black Twang
EXTD=
EXTT0=Redman
EXTT1=
EXTT2=
EXTT3=
EXTT4=
EXTT5=
EXTT6=
EXTT7=
EXTT8=
EXTT9=
EXTT10=
EXTT11=
EXTT12=
EXTT13=
PLAYORDER=
